# xmcd
# 
# Track frame offsets:
#     218
#     22657
#     43275
#     59791
#     86180
#     106835
#     111884
#     130826
#     149259
#     169432
#     186304
# 
# Disc length: 2766
# 
# Revision: 2
# Processed by: cddbd v1.5.2PL0 Copyright (c) Steve Scherf et al.
# Submitted via: fre:ac v1.0.17
# 
DISCID=a10acc0b
DTITLE=Rue Davis  - You Are My Honey poo
DYEAR=1995
DGENRE=Southern Soul Blues
TTITLE0=Honey Poo
TTITLE1=Don't Let Nobody Make A Fool Of You
TTITLE2=I'm In Love With The Girl Next Door
TTITLE3=Hard To Live Without You
TTITLE4=Heaven Has Sent Me Your Love
TTITLE5=Heaven Has Sent Me Your Love(Interlude)
TTITLE6=You'll Never Find Another Baby
TTITLE7=Love Is So Good When You're Stealing It
TTITLE8=Baby
TTITLE9=What Becomes Of The Brokenhearted ?
TTITLE10=Youu Gonna Make A Good Man Do Wrong
EXTD=
EXTT0=
EXTT1=
EXTT2=
EXTT3=
EXTT4=
EXTT5=
EXTT6=
EXTT7=
EXTT8=
EXTT9=
EXTT10=
PLAYORDER=
